<?xml version="1.0" encoding="UTF-8"?>
<svg version="1.1" xmlns="http://www.w3.org/2000/svg" viewBox="0 0 420 595" width="420" height="595">
<path d="M0 0 C15.18 0 30.36 0 46 0 C46 50.15322415 33.14201758 95.3122587 4.10986328 136.4128418 C3.05123038 137.92673807 2.02470792 139.46293812 1 141 C0.34 141 -0.32 141 -1 141 C-1.38865234 141.84884766 -1.38865234 141.84884766 -1.78515625 142.71484375 C-10.27691005 158.68807838 -27.72414929 173.24877703 -42 184 C-42.91265625 184.71800781 -43.8253125 185.43601563 -44.765625 186.17578125 C-63.71744693 200.84570759 -84.67263376 212.18632617 -108 218 C-109.25167969 218.350625 -110.50335938 218.70125 -111.79296875 219.0625 C-118.79218109 220.78322813 -125.82853245 221.10569101 -133.0078125 220.82421875 C-143.29790374 220.1249246 -143.29790374 220.1249246 -152.82666016 223.15917969 C-155.83142272 226.26268056 -157.47588109 229.99492957 -159.10351562 233.95019531 C-160.33456971 236.7649911 -161.90873558 239.31885959 -163.49584961 241.94433594 C-174.47219649 260.30346233 -182.25831076 281.99599307 -177.875 303.5 C-174.62119574 316.06538235 -167.993515 327.67099 -157 335 C-157 335.66 -157 336.32 -157 337 C-156.0409375 337.3403125 -156.0409375 337.3403125 -155.0625 337.6875 C-152.48750152 338.79107078 -150.17783757 339.99313098 -147.75 341.375 C-140.84760828 345.25403006 -133.94941637 348.19514914 -126.32421875 350.34375 C-124.42787157 350.8791892 -122.55331996 351.4913253 -120.6875 352.125 C-98.44598893 357.40264669 -70.71255856 354.45726523 -50.98046875 342.3203125 C-50.32691406 341.88460938 -49.67335937 341.44890625 -49 341 C-48.25363281 340.52304687 -47.50726563 340.04609375 -46.73828125 339.5546875 C-41.48808899 336.05455933 -36.62503467 332.13248185 -31.8125 328.0625 C-31.24249268 327.58482178 -30.67248535 327.10714355 -30.08520508 326.61499023 C-22.78029671 320.32907703 -17.13106604 313.16658737 -12.0625 305 C-11.54526367 304.17113281 -11.02802734 303.34226562 -10.49511719 302.48828125 C0.90935712 283.95157503 8.60443489 263.75969177 16.35449219 243.49707031 C26.55624792 216.84036239 37.71852318 191.44417011 57 170 C57.57878906 169.278125 58.15757812 168.55625 58.75390625 167.8125 C71.73696631 151.67315716 94.96413465 136.82872738 115 132 C115.33106785 138.95461936 115.55782565 145.90719618 115.71411133 152.86791992 C115.77928092 155.23229876 115.86785014 157.59615768 115.98071289 159.95874023 C116.87104246 179.08269706 116.87104246 179.08269706 113.746521 183.95440674 C110.36678327 187.3855312 106.46714301 189.23675255 102 191 C99.71354282 191.90561633 99.71354282 191.90561633 98 193 C97.67 193.99 97.34 194.98 97 196 C95.0625 198.1875 95.0625 198.1875 93 200 C92.34 200 91.68 200 91 200 C90.731875 200.56203125 90.46375 201.1240625 90.1875 201.703125 C88.9196021 204.15550646 87.51027658 206.43927683 86 208.75 C85.2265625 209.94882812 85.2265625 209.94882812 84.4375 211.171875 C83.7259375 212.07679688 83.7259375 212.07679688 83 213 C82.34 213 81.68 213 81 213 C80.7421875 213.69480469 80.484375 214.38960937 80.21875 215.10546875 C78.86201573 218.32771265 77.21511894 221.26535221 75.5 224.3125 C67.7935016 238.41111269 62.17682938 253.63410297 56.6171875 268.6796875 C51.37689716 282.7650973 46.13482159 296.82859919 38.72265625 309.93359375 C37.23270086 312.58578191 35.91036695 315.24564225 34.625 318 C29.08693808 329.13150446 21.51351439 338.98364879 13.34765625 348.29296875 C11.03022713 350.88028556 11.03022713 350.88028556 9.30859375 353.36328125 C8.87675781 353.90339844 8.44492187 354.44351562 8 355 C7.34 355 6.68 355 6 355 C5.67 355.99 5.34 356.98 5 358 C2.53211007 360.54707356 -0.27602423 362.73221341 -3 365 C-3.83144531 365.71800781 -4.66289062 366.43601562 -5.51953125 367.17578125 C-21.46502513 380.69326435 -40.1566759 389.7749448 -60 396 C-61.00160156 396.31839844 -62.00320312 396.63679688 -63.03515625 396.96484375 C-96.62940424 406.46195183 -136.1045716 400.56702777 -166.8125 384.6875 C-195.28740102 368.46258813 -213.82932812 345.80366245 -224.10546875 314.6484375 C-229.17061932 295.48171751 -226.55356354 274.71292426 -221 256 C-220.80245117 255.32549805 -220.60490234 254.65099609 -220.40136719 253.95605469 C-215.67776169 238.33307623 -207.08391073 224.07199275 -199 210 C-199.6909375 209.89558594 -200.381875 209.79117188 -201.09375 209.68359375 C-214.50126499 206.52994439 -226.61280272 196.60659755 -236 187 C-236.58523437 186.44957031 -237.17046875 185.89914063 -237.7734375 185.33203125 C-250.16875985 173.57159126 -257.29662068 158.32112971 -261.48071289 142.00024414 C-261.9857123 140.05503487 -262.54681326 138.12466156 -263.109375 136.1953125 C-268.15926741 115.64202462 -262.68035678 92.79325419 -252 75 C-249.48331983 71.20340819 -246.81442607 67.57980533 -244 64 C-243.236875 62.96875 -242.47375 61.9375 -241.6875 60.875 C-227.1358443 45.3081125 -206.3491267 33.89050941 -184.81445312 32.89941406 C-175.38111659 32.58753641 -166.19402993 32.64140082 -157 35 C-156.21109375 35.17144531 -155.4221875 35.34289063 -154.609375 35.51953125 C-135.52625646 40.29031088 -118.1251055 55.60924097 -108 72 C-105.73785467 75.90586245 -103.79029129 79.85704926 -102 84 C-101.58363281 84.94230469 -101.16726562 85.88460937 -100.73828125 86.85546875 C-94.01635953 105.46457835 -96.29579868 128.10838812 -104 146 C-104.49113281 147.18335938 -104.98226562 148.36671875 -105.48828125 149.5859375 C-108.87713943 157.27709271 -112.93398609 164.64989792 -117 172 C-113.98769908 171.02993699 -110.99354746 170.0256444 -108 169 C-107.03320312 168.68289062 -106.06640625 168.36578125 -105.0703125 168.0390625 C-89.39542303 162.52744301 -76.81263621 152.76240199 -64.5546875 141.81640625 C-63.83539063 141.17574219 -63.11609375 140.53507813 -62.375 139.875 C-61.76398438 139.31554687 -61.15296875 138.75609375 -60.5234375 138.1796875 C-59 137 -59 137 -57 137 C-56.67 136.01 -56.34 135.02 -56 134 C-55.34 134 -54.68 134 -54 134 C-53.67 133.01 -53.34 132.02 -53 131 C-51.0625 128.8125 -51.0625 128.8125 -49 127 C-48.34 127 -47.68 127 -47 127 C-46.566875 126.1028125 -46.566875 126.1028125 -46.125 125.1875 C-45 123 -45 123 -43 120 C-42.34 120 -41.68 120 -41 120 C-40.7525 119.46375 -40.505 118.9275 -40.25 118.375 C-38.69347463 115.4176018 -36.96564327 112.70275949 -35 110 C-34.34 110 -33.68 110 -33 110 C-32.72454346 109.43555176 -32.44908691 108.87110352 -32.1652832 108.28955078 C-30.96653458 105.93424707 -29.67970732 103.65419269 -28.35546875 101.3671875 C-27.84306641 100.47773437 -27.33066406 99.58828125 -26.80273438 98.671875 C-25.73899227 96.82994188 -24.67392142 94.9887754 -23.60742188 93.1484375 C-6.50613456 63.42934643 -2.67151272 33.66106021 0 0 Z M-198 84 C-198.67417969 84.37253906 -199.34835938 84.74507813 -200.04296875 85.12890625 C-208.67241916 90.5961298 -213.62653085 99.94765366 -217.25 109.1875 C-219.8935178 122.62538217 -217.26621194 136.20242318 -209.7578125 147.69140625 C-200.06935901 160.41557517 -188.12371216 166.78458879 -173 171 C-151.77881643 144.14054023 -151.77881643 144.14054023 -143.5625 111.875 C-143.52878296 110.7463855 -143.52878296 110.7463855 -143.49438477 109.5949707 C-143.53394477 100.33894388 -148.17914027 93.89434595 -154.40625 87.34375 C-161.99412957 80.48723232 -169.6770735 78.1709125 -179.69873047 78.35229492 C-186.45709888 78.73959615 -192.09343517 80.68387262 -198 84 Z " fill="#B8C2D4" transform="translate(305,0)"/>
<path d="M0 0 C20.09720095 1.18218829 20.09720095 1.18218829 27.0625 2.5625 C28.35160278 2.81531738 28.35160278 2.81531738 29.66674805 3.07324219 C54.83026005 8.35088117 79.07056837 18.33088053 97.94140625 36.1171875 C100.05655742 38.14765048 100.05655742 38.14765048 103 40 C103 40.66 103 41.32 103 42 C103.66 42 104.32 42 105 42 C106.54091405 43.69588264 108.00923297 45.45821672 109.4375 47.25 C110.21996094 48.22453125 111.00242187 49.1990625 111.80859375 50.203125 C112.53175781 51.12609375 113.25492187 52.0490625 114 53 C114.58910156 53.73734375 115.17820312 54.4746875 115.78515625 55.234375 C117 57 117 57 117 59 C117.66 59 118.32 59 119 59 C120.60073216 61.34734231 122.06605011 63.67858071 123.5 66.125 C123.90347656 66.79015625 124.30695313 67.4553125 124.72265625 68.140625 C127.02573809 72.01709938 128.63767769 75.67654003 130 80 C130.76328613 80.06469482 131.52657227 80.12938965 132.31298828 80.19604492 C148.88641739 81.64320763 164.89895162 83.65679159 181 88 C181.83789062 88.22026855 182.67578125 88.44053711 183.5390625 88.66748047 C196.8985112 92.22707042 209.46214415 97.20077197 222 103 C222.75361816 103.34853027 223.50723633 103.69706055 224.28369141 104.05615234 C232.44600241 107.87965682 240.04639002 112.07619559 247.44921875 117.23828125 C249.99697436 119.05353765 249.99697436 119.05353765 252.83203125 120.60546875 C253.54746094 121.06566406 254.26289063 121.52585937 255 122 C255 122.66 255 123.32 255 124 C255.70382813 124.22171875 256.40765625 124.4434375 257.1328125 124.671875 C260.64137982 126.29709692 263.12497097 128.60095824 265.875 131.25 C266.92873948 132.24449504 267.98342271 133.23799108 269.0390625 134.23046875 C269.54469727 134.70790527 270.05033203 135.1853418 270.57128906 135.67724609 C272.40697917 137.37679651 274.31820826 138.97369985 276.25 140.5625 C277.1575 141.366875 278.065 142.17125 279 143 C279 143.66 279 144.32 279 145 C279.99 145.33 280.98 145.66 282 146 C283.5078125 147.4609375 283.5078125 147.4609375 285.125 149.375 C285.73859375 150.10074219 286.3521875 150.82648438 286.984375 151.57421875 C287.98210937 152.77498047 287.98210937 152.77498047 289 154 C290.05960937 155.24716797 290.05960937 155.24716797 291.140625 156.51953125 C296.89668436 163.39258814 301.99921986 170.57459919 307 178 C307.8353125 179.2065625 307.8353125 179.2065625 308.6875 180.4375 C317.85854072 193.81193439 324.76994349 208.87798724 331.4375 223.625 C331.77958496 224.37080322 332.12166992 225.11660645 332.47412109 225.88500977 C332.79074707 226.59584717 333.10737305 227.30668457 333.43359375 228.0390625 C333.71259521 228.65990723 333.99159668 229.28075195 334.27905273 229.92041016 C335 232 335 232 336 238 C319.83 238 303.66 238 287 238 C282.05 228.595 282.05 228.595 277 219 C268.63870795 203.91981256 258.58913588 189.32387624 246.17578125 177.25390625 C244 175 244 175 244 173 C243.01 172.67 242.02 172.34 241 172 C239.30255488 170.36469097 237.63988824 168.69302159 236 167 C227.99744712 159.689173 219.63960155 153.96122833 210 149 C209.37561035 148.67290039 208.7512207 148.34580078 208.10791016 148.00878906 C187.47677944 137.32043476 163.3628878 129.02920211 140 128 C140.03480469 128.6084375 140.06960937 129.216875 140.10546875 129.84375 C140.8584297 154.22534273 130.36015939 176.88016443 116 196 C115.51144531 196.67417969 115.02289063 197.34835937 114.51953125 198.04296875 C106.77798753 207.96395 95.23874275 213.93484877 84 219 C83.21238281 219.36738281 82.42476563 219.73476563 81.61328125 220.11328125 C67.28594971 224.9747226 50.41358549 223.70254712 36.80859375 217.5 C32.27567565 215.0790813 27.87017012 212.39924234 24 209 C24 208.34 24 207.68 24 207 C23.40960937 206.76023437 22.81921875 206.52046875 22.2109375 206.2734375 C14.62281498 201.90289343 8.79638804 189.23452319 6.45214844 181.09863281 C2.08323572 163.33635346 2.92818442 145.99060561 12.18359375 129.90234375 C12.78300781 128.94457031 13.38242188 127.98679687 14 127 C14.69222656 125.88753906 15.38445313 124.77507812 16.09765625 123.62890625 C16.72542969 122.76136719 17.35320313 121.89382813 18 121 C18.66 121 19.32 121 20 121 C20.268125 120.401875 20.53625 119.80375 20.8125 119.1875 C21.99917406 117.00152146 23.09599113 115.58667406 25 114 C25.66 114 26.32 114 27 114 C27.495 112.515 27.495 112.515 28 111 C43.08020345 98.16403735 61.16568252 90.37062667 80 85 C69.68632795 71.28590746 57.18454203 61.13717834 41 55 C40.01902344 54.60167969 39.03804687 54.20335937 38.02734375 53.79296875 C25.70860372 49.19600939 12.98978961 47.81722445 0 46 C0 30.82 0 15.64 0 0 Z M56.87890625 146.9921875 C52.4880429 151.68429511 50.11290223 156.45167059 50 163 C50.8621123 167.49366501 52.18402801 170.98621662 55.0625 174.5625 C59.43462697 176.7020515 63.22840991 176.84375678 68 176 C79.24471618 171.23661329 85.8010443 160.51253065 90.3125 149.6875 C92.91892879 143.19070756 93.97380785 137.0325923 94 130 C80.74861645 130 66.28338057 138.14289682 56.87890625 146.9921875 Z " fill="#B8C2D4" transform="translate(0,357)"/>
<path d="M0 0 C0 16.5 0 33 0 50 C-6.93 53.96 -6.93 53.96 -14 58 C-16.54710489 59.7561236 -18.9316365 61.43843029 -21.3125 63.375 C-22.17693726 64.06916016 -22.17693726 64.06916016 -23.05883789 64.77734375 C-33.77847282 73.57970654 -45.3978156 86.1296985 -47.33203125 100.45996094 C-47.51068125 103.16914764 -47.56842594 105.84747241 -47.5625 108.5625 C-47.5637085 109.52397949 -47.56491699 110.48545898 -47.56616211 111.47607422 C-47.36351767 120.43879091 -44.88735694 127.00992008 -41 135 C-40.30859375 137.3984375 -40.30859375 137.3984375 -40 139 C-39.34 139 -38.68 139 -38 139 C-37.690625 139.804375 -37.38125 140.60875 -37.0625 141.4375 C-29.98907797 155.38694623 -13.0651424 161.90293355 0 168 C0 183.18 0 198.36 0 214 C-11.4467292 212.85532708 -20.71842842 209.91727336 -31 205 C-32.40378906 204.35417969 -32.40378906 204.35417969 -33.8359375 203.6953125 C-41.20126379 200.19252236 -47.579419 196.01118517 -54 191 C-54.92941406 190.29875 -55.85882813 189.5975 -56.81640625 188.875 C-75.44566583 174.36542369 -89.5165046 150.33891186 -93.33984375 126.91821289 C-96.68320002 99.83404198 -91.80634024 74.80979291 -75.5625 52.6875 C-60.86421932 33.91195653 -26.55022986 0 0 0 Z " fill="#B8C2D4" transform="translate(420,313)"/>
<path d="M0 0 C0.66 0 1.32 0 2 0 C1.99214478 1.05127075 1.99214478 1.05127075 1.98413086 2.1237793 C1.96329148 5.31167701 1.95031768 8.49956036 1.9375 11.6875 C1.92912109 12.79029297 1.92074219 13.89308594 1.91210938 15.02929688 C1.90888672 16.09599609 1.90566406 17.16269531 1.90234375 18.26171875 C1.89710693 19.24100342 1.89187012 20.22028809 1.88647461 21.22924805 C1.99707835 23.92869277 2.42276676 26.36637333 3 29 C3.11678799 31.67678073 3.0454506 34.31841457 3 37 C-0.41350404 34.07422107 -0.52613146 31.89384226 -0.87402344 27.57666016 C-1.09234924 23.11113598 -1.14403605 18.65780022 -1.125 14.1875 C-1.12886719 13.26001953 -1.13273437 12.33253906 -1.13671875 11.37695312 C-1.13542969 10.48298828 -1.13414062 9.58902344 -1.1328125 8.66796875 C-1.13168457 7.86641357 -1.13055664 7.0648584 -1.12939453 6.23901367 C-1.00215229 4.03724276 -0.60870661 2.11475677 0 0 Z " fill="#B7B8C6" transform="translate(327,408)"/>
<path d="M0 0 C0.33 0.99 0.66 1.98 1 3 C-0.8125 5 -0.8125 5 -3 7 C-3.99 7 -4.98 7 -6 7 C-6 7.99 -6 8.98 -6 10 C-6.60328125 10.32613281 -7.2065625 10.65226563 -7.828125 10.98828125 C-9.02695313 11.64376953 -9.02695313 11.64376953 -10.25 12.3125 C-11.03890625 12.74175781 -11.8278125 13.17101562 -12.640625 13.61328125 C-15.03680611 14.93188012 -15.03680611 14.93188012 -17.046875 16.73046875 C-19 18 -19 18 -21.25 17.6875 C-21.8275 17.460625 -22.405 17.23375 -23 17 C-22.09378906 16.35933594 -21.18757812 15.71867188 -20.25390625 15.05859375 C-13.38240683 10.18490867 -6.58417426 5.26037202 0 0 Z " fill="#C3C4CD" transform="translate(237,145)"/>
<path d="M0 0 C11.73571454 0.31977424 22.61554848 2.16706357 34 5 C30.20669456 7.55923882 27.4232432 6.88040769 23.046875 6.1015625 C22.38665344 5.98775238 21.72643188 5.87394226 21.04620361 5.75668335 C18.94511894 5.3916167 16.84777216 5.00859812 14.75 4.625 C13.32312599 4.37380802 11.89604401 4.12379437 10.46875 3.875 C6.97665286 3.263637 3.48767943 2.63613754 0 2 C0 1.34 0 0.68 0 0 Z " fill="#BCBBC8" transform="translate(0,401)"/>
<path d="M0 0 C1.65 0 3.3 0 5 0 C5.33 0.99 5.66 1.98 6 3 C7.32 3 8.64 3 10 3 C10 3.66 10 4.32 10 5 C10.886875 5.12375 11.77375 5.2475 12.6875 5.375 C15.7985552 5.96199155 18.23541338 6.46411855 21 8 C22.3125 10.625 22.3125 10.625 23 13 C18.61976029 12.58935253 15.78010936 10.75550044 12.19921875 8.40234375 C9.15481372 6.46106239 5.97852603 4.79486705 2.78515625 3.11328125 C1 2 1 2 0 0 Z " fill="#C2BDCB" transform="translate(202,500)"/>
<path d="M0 0 C0.33 0 0.66 0 1 0 C1.00386719 1.68802734 1.00386719 1.68802734 1.0078125 3.41015625 C1.1993335 13.29566939 2.58702197 21.15980512 6.72265625 30.15625 C8 33 8 33 8 35 C5 34 5 34 3.359375 31.54296875 C-1.78133907 20.82482946 -1.29051931 11.66160174 0 0 Z " fill="#D1D1D7" transform="translate(371,415)"/>
<path d="M0 0 C1.24426758 -0.01836914 1.24426758 -0.01836914 2.51367188 -0.03710938 C7.63429921 -0.04923399 11.83757474 0.5315876 16.6875 2.1875 C16.6875 2.5175 16.6875 2.8475 16.6875 3.1875 C6.4575 3.1875 -3.7725 3.1875 -14.3125 3.1875 C-13.3125 1.1875 -13.3125 1.1875 -11.51879883 0.57299805 C-7.69133767 -0.09575941 -3.87603086 0.00297014 0 0 Z " fill="#BBBEC9" transform="translate(127.3125,32.8125)"/>
<path d="M0 0 C0.33 0 0.66 0 1 0 C1.33 9.24 1.66 18.48 2 28 C-3.03663325 20.44505013 -2.13347671 12.6556403 -1 4 C-0.69560024 2.65976507 -0.37544847 1.32209203 0 0 Z " fill="#B5B7C2" transform="translate(124,279)"/>
<path d="M0 0 C0.33 0 0.66 0 1 0 C1.125 6.625 1.125 6.625 0 10 C-0.26914008 13.35357089 -0.44505804 16.70674598 -0.62109375 20.06640625 C-1 23 -1 23 -3 25 C-3.55353075 8.29157175 -3.55353075 8.29157175 0 0 Z " fill="#B5B7C4" transform="translate(88,103)"/>
<path d="M0 0 C3.15603705 3.80159008 4.40794083 7.70408719 5.9375 12.34375 C6.98777243 14.96943107 8.28496769 16.7782536 10 19 C10 19.66 10 20.32 10 21 C8.203125 20.91796875 8.203125 20.91796875 6 20 C4.69599575 17.74191924 3.70807129 15.71012228 2.75 13.3125 C2.481875 12.69955078 2.21375 12.08660156 1.9375 11.45507812 C0.291842 7.4962631 -0.28852386 4.2688416 0 0 Z " fill="#B9B8C8" transform="translate(331,450)"/>
<path d="M0 0 C0.66 0 1.32 0 2 0 C3.22812793 2.40832892 4.43228415 4.82421325 5.625 7.25 C5.975625 7.93191406 6.32625 8.61382813 6.6875 9.31640625 C9.17660385 14.44396017 9.17660385 14.44396017 8.2109375 17.484375 C7.81132812 17.98453125 7.41171875 18.4846875 7 19 C7 17.68 7 16.36 7 15 C6.34 15 5.68 15 5 15 C4.34865075 13.43979133 3.70417036 11.87671421 3.0625 10.3125 C2.70285156 9.44238281 2.34320313 8.57226562 1.97265625 7.67578125 C1.0429688 5.11820735 0.45837375 2.6778677 0 0 Z " fill="#C0BFCA" transform="translate(323,567)"/>
<path d="M0 0 C1.10546875 1.71875 1.10546875 1.71875 2 4 C0.81315566 8.58590192 -1.7163887 13.56713365 -5 17 C-5.66 17 -6.32 17 -7 17 C-5.56229049 13.16610796 -3.80169455 9.58436131 -1.90234375 5.96484375 C-0.99577093 3.99079124 -0.45775052 2.11886583 0 0 Z " fill="#C1C1CD" transform="translate(158,127)"/>
<path d="M0 0 C0.99 0 1.98 0 3 0 C2.67 6.27 2.34 12.54 2 19 C1.34 19 0.68 19 0 19 C0 12.73 0 6.46 0 0 Z " fill="#BBB8C8" transform="translate(79,278)"/>
<path d="M0 0 C1.2640688 3.79220639 0.5071619 5.31378898 -0.75 9.0625 C-1.09546875 10.12597656 -1.4409375 11.18945312 -1.796875 12.28515625 C-3 15 -3 15 -6 17 C-5.57664615 10.50857435 -3.08900201 5.66507011 0 0 Z " fill="#BABBC5" transform="translate(328,229)"/>
<path d="M0 0 C0.66 0.99 1.32 1.98 2 3 C1.65066406 3.54269531 1.30132812 4.08539063 0.94140625 4.64453125 C0.48636719 5.35996094 0.03132813 6.07539063 -0.4375 6.8125 C-0.88996094 7.52019531 -1.34242188 8.22789062 -1.80859375 8.95703125 C-3.14086339 11.08134552 -3.14086339 11.08134552 -4 14 C-6.0625 14.6875 -6.0625 14.6875 -8 15 C-6.62712658 11.30123909 -4.93644547 8.0485524 -2.875 4.6875 C-2.33617187 3.80449219 -1.79734375 2.92148438 -1.2421875 2.01171875 C-0.83226562 1.34785156 -0.42234375 0.68398437 0 0 Z " fill="#C5C6D1" transform="translate(346,191)"/>
<path d="M0 0 C0.99 0.33 1.98 0.66 3 1 C1.59148053 2.32123942 0.17284259 3.63169769 -1.25 4.9375 C-2.03890625 5.66839844 -2.8278125 6.39929688 -3.640625 7.15234375 C-5.89044414 8.91420543 -7.21628554 9.59776603 -10 10 C-7.26947774 5.37911618 -4.87254198 2.59177765 0 0 Z " fill="#BBBCCA" transform="translate(378,334)"/>
<path d="M0 0 C0.33 0 0.66 0 1 0 C1 6.93 1 13.86 1 21 C0.01 21 -0.98 21 -2 21 C-1.855625 19.948125 -1.71125 18.89625 -1.5625 17.8125 C-0.81616844 11.89515692 -0.42610508 5.94733899 0 0 Z " fill="#B4B5C5" transform="translate(162,105)"/>
<path d="M0 0 C0.66 0 1.32 0 2 0 C1.39644592 3.85025879 0.23227397 6.86101159 -1.5625 10.3125 C-2.01753906 11.19550781 -2.47257812 12.07851562 -2.94140625 12.98828125 C-3.29074219 13.65214844 -3.64007813 14.31601563 -4 15 C-4.33 15 -4.66 15 -5 15 C-4.5188509 9.22621075 -2.81532819 5.04140164 0 0 Z " fill="#BCBDCA" transform="translate(106,209)"/>
<path d="M0 0 C-1.65 0.66 -3.3 1.32 -5 2 C-5 2.66 -5 3.32 -5 4 C-5.99 4.495 -5.99 4.495 -7 5 C-8.0409066 6.64142963 -9.04504326 8.30712215 -10 10 C-10.66 9.67 -11.32 9.34 -12 9 C-10.46990911 5.55729549 -8.5068778 2.81074178 -6 0 C-3 -1 -3 -1 0 0 Z " fill="#BCBFCA" transform="translate(356,359)"/>
<path d="M0 0 C0.99 0.33 1.98 0.66 3 1 C-0.33333333 4.33333333 -3.66666667 7.66666667 -7 11 C-7.66 10.34 -8.32 9.68 -9 9 C-8.06725891 7.87105124 -7.12859878 6.74699124 -6.1875 5.625 C-5.66542969 4.99851563 -5.14335937 4.37203125 -4.60546875 3.7265625 C-3 2 -3 2 0 0 Z " fill="#BCB9C5" transform="translate(372,160)"/>
<path d="M0 0 C0.99 0.33 1.98 0.66 3 1 C2.01 2.485 2.01 2.485 1 4 C0.34 4 -0.32 4 -1 4 C-1.268125 4.598125 -1.53625 5.19625 -1.8125 5.8125 C-2.98493467 7.97224808 -4.19369282 9.35790256 -6 11 C-7 9 -7 9 -6.9375 7.1875 C-5.43276437 3.67645019 -3.11953972 2.18367781 0 0 Z " fill="#B8BBCA" transform="translate(244,139)"/>
<path d="M0 0 C0.33 0 0.66 0 1 0 C1.59720137 5.82271337 -0.471757 9.9209404 -3 15 C-3.66 15 -4.32 15 -5 15 C-3.78623966 9.67812773 -2.27376292 4.96093728 0 0 Z " fill="#B9BAC7" transform="translate(133,516)"/>
<path d="M0 0 C1.74325447 2.6148817 2.41587957 4.0053433 3.125 6.9375 C3.29257812 7.60652344 3.46015625 8.27554688 3.6328125 8.96484375 C4 11 4 11 4 15 C3.34 15 2.68 15 2 15 C1.46906676 13.06524329 0.95057683 11.12706845 0.4375 9.1875 C0.14746094 8.10855469 -0.14257812 7.02960938 -0.44140625 5.91796875 C-1 3 -1 3 0 0 Z " fill="#B4B4C4" transform="translate(44,136)"/>
<path d="M0 0 C0.66 0 1.32 0 2 0 C2.02715383 1.74991334 2.04646551 3.49994945 2.0625 5.25 C2.07410156 6.22453125 2.08570313 7.1990625 2.09765625 8.203125 C2.01195577 10.65758678 1.70706066 12.66168914 1 15 C0.34 15 -0.32 15 -1 15 C-0.67 10.05 -0.34 5.1 0 0 Z " fill="#B7B8C4" transform="translate(345,39)"/>
<path d="M0 0 C3.25669165 3.08065427 6.10679924 5.89806503 8 10 C7.6875 12.3125 7.6875 12.3125 7 14 C6.34 12.35 5.68 10.7 5 9 C4.34 9 3.68 9 3 9 C2.01 6.03 1.02 3.06 0 0 Z " fill="#B9BBC5" transform="translate(311,545)"/>
<path d="M0 0 C0.66 0 1.32 0 2 0 C2 0.66 2 1.32 2 2 C2.598125 2.0825 3.19625 2.165 3.8125 2.25 C6.62219534 3.21332412 7.27912517 4.63379711 9 7 C11.08334635 8.2516467 11.08334635 8.2516467 13 9 C12.01 9.66 11.02 10.32 10 11 C8.51450044 9.73657512 7.03678811 8.4639897 5.5625 7.1875 C4.73878906 6.47980469 3.91507812 5.77210938 3.06640625 5.04296875 C1 3 1 3 0 0 Z " fill="#B5B7C4" transform="translate(356,493)"/>
<path d="M0 0 C0.33 0 0.66 0 1 0 C1.05425226 2.39614126 1.09379027 4.79103853 1.125 7.1875 C1.15013672 8.19780273 1.15013672 8.19780273 1.17578125 9.22851562 C1.21538674 13.28807807 0.80020002 16.34998815 -1 20 C-1.33 20 -1.66 20 -2 20 C-1.47594437 13.30992818 -0.89536075 6.6512513 0 0 Z " fill="#B2B3BE" transform="translate(138,488)"/>
<path d="M0 0 C0.99 0 1.98 0 3 0 C4.640625 1.64453125 4.640625 1.64453125 6.25 3.8125 C6.79140625 4.52019531 7.3328125 5.22789062 7.890625 5.95703125 C8.25671875 6.63121094 8.6228125 7.30539062 9 8 C8.67 8.99 8.34 9.98 8 11 C3.80938206 8.20625471 2.14648445 4.45808309 0 0 Z " fill="#B9BBC5" transform="translate(288,513)"/>
<path d="M0 0 C3.62613199 0.56959153 5.25517741 1.92374534 7.75 4.5625 C8.36359375 5.20316406 8.9771875 5.84382813 9.609375 6.50390625 C10.06828125 6.99761719 10.5271875 7.49132812 11 8 C10.67 8.99 10.34 9.98 10 11 C8.33035479 9.35718838 6.6643536 7.71067239 5 6.0625 C4.071875 5.14597656 3.14375 4.22945313 2.1875 3.28515625 C0 1 0 1 0 0 Z " fill="#B7BAC9" transform="translate(383,459)"/>
<path d="M0 0 C1.109375 1.67578125 1.109375 1.67578125 2 4 C1.390625 6.54296875 1.390625 6.54296875 0.25 9.1875 C-0.29914063 10.50814453 -0.29914063 10.50814453 -0.859375 11.85546875 C-2 14 -2 14 -4 15 C-3.32584613 9.7415998 -1.75734451 4.97361654 0 0 Z " fill="#B9BAC6" transform="translate(358,269)"/>
<path d="M0 0 C0.66 0 1.32 0 2 0 C1.68950274 1.43793392 1.3765224 2.8753318 1.0625 4.3125 C0.88847656 5.11300781 0.71445313 5.91351563 0.53515625 6.73828125 C0 9 0 9 -1 12 C-1.66 12 -2.32 12 -3 12 C-2.14285714 3.42857143 -2.14285714 3.42857143 0 0 Z " fill="#BDBCC8" transform="translate(130,258)"/>
<path d="M0 0 C2.3125 0.0625 2.3125 0.0625 5 1 C6.88042897 4.50148842 8 7.0080306 8 11 C7.34 11 6.68 11 6 11 C1.71428571 3.57142857 1.71428571 3.57142857 0 0 Z " fill="#BABCC5" transform="translate(152,88)"/>
<path d="M0 0 C0.33 0 0.66 0 1 0 C1.77313045 5.9114744 2.14819277 11.1314592 1 17 C0.34 16.67 -0.32 16.34 -1 16 C-1.02712153 14.083412 -1.04645097 12.1667127 -1.0625 10.25 C-1.07410156 9.18265625 -1.08570313 8.1153125 -1.09765625 7.015625 C-1.01510087 4.46631499 -0.74617558 2.42066409 0 0 Z " fill="#B3B5C6" transform="translate(348,16)"/>
<path d="M0 0 C0.66 0.33 1.32 0.66 2 1 C2.33 1.99 2.66 2.98 3 4 C4.62652316 5.70586575 6.29006566 7.3777546 8 9 C3.60249328 8.49259538 1.13051078 5.91706686 -2 3 C-2 2.34 -2 1.68 -2 1 C-1.34 0.67 -0.68 0.34 0 0 Z " fill="#BABBC8" transform="translate(229,513)"/>
<path d="M0 0 C4.23429756 1.31061591 8.07407404 2.94356259 12 5 C12 5.33 12 5.66 12 6 C6.72250715 5.46148032 2.74354436 4.22656164 -2 2 C-1.34 1.34 -0.68 0.68 0 0 Z " fill="#BCBCC7" transform="translate(138,78)"/>
<path d="M0 0 C0.99 0.495 0.99 0.495 2 1 C3.29930238 5.28769786 3.07516774 9.56510345 3 14 C0.65454672 11.65454672 0.04491112 10.04014162 -0.09765625 6.73828125 C-0.08605469 5.93777344 -0.07445312 5.13726563 -0.0625 4.3125 C-0.05347656 3.50425781 -0.04445312 2.69601562 -0.03515625 1.86328125 C-0.02355469 1.24839844 -0.01195312 0.63351562 0 0 Z " fill="#B6B6C3" transform="translate(48,514)"/>
<path d="M0 0 C2.31 0.33 4.62 0.66 7 1 C7.66 2.65 8.32 4.3 9 6 C5.21213403 5.4739075 2.82847776 4.61896089 0 2 C0 1.34 0 0.68 0 0 Z " fill="#B9B9C5" transform="translate(216,507)"/>
<path d="M0 0 C9.41002278 0.96355353 9.41002278 0.96355353 14 2 C14 2.66 14 3.32 14 4 C9.02906176 3.58846263 4.55491614 3.20399168 0 1 C0 0.67 0 0.34 0 0 Z " fill="#BBBBC6" transform="translate(167,488)"/>
<path d="M0 0 C0.66 0.33 1.32 0.66 2 1 C-2.73999811 4.94999843 -5.70437864 7.34975674 -12 7 C-8.44008172 4.03340143 -4.34777457 1.618652 0 0 Z " fill="#C5C6D5" transform="translate(57,450)"/>
<path d="M0 0 C-1.55603771 3.81936528 -3.95604931 6.26044438 -7 9 C-7.66 9 -8.32 9 -9 9 C-8.44706396 4.02357564 -5.06735917 0 0 0 Z " fill="#BCBCC9" transform="translate(393,379)"/>
<path d="M0 0 C0.33 0.66 0.66 1.32 1 2 C-0.375 4 -0.375 4 -2 6 C-2.66 6 -3.32 6 -4 6 C-4.33 6.99 -4.66 7.98 -5 9 C-6.65 9.33 -8.3 9.66 -10 10 C-6.66666667 6.66666667 -3.33333333 3.33333333 0 0 Z " fill="#C6C7CF" transform="translate(274,327)"/>
<path d="M0 0 C0.33 0.66 0.66 1.32 1 2 C-2.25 8.5 -2.25 8.5 -6 11 C-5.43518386 7.04628701 -4.28003407 4.28324906 -2 1 C-1.34 0.67 -0.68 0.34 0 0 Z " fill="#BABBC9" transform="translate(150,146)"/>
<path d="M0 0 C1.37351794 3.12163168 0.89111525 4.33811581 -0.1875 7.6875 C-2 11 -2 11 -4.1875 11.9375 C-4.785625 11.958125 -5.38375 11.97875 -6 12 C-4.43358249 7.69235185 -2.31663844 3.93828536 0 0 Z " fill="#C5C6D0" transform="translate(288,82)"/>
<path d="M0 0 C0.66 0 1.32 0 2 0 C1.58578031 4.83256305 -0.46413986 6.82679218 -4 10 C-3.43697042 6.05879291 -2.3208055 3.2491277 0 0 Z " fill="#BBBCCC" transform="translate(301,292)"/>
<path d="M0 0 C2.3828125 0.2421875 2.3828125 0.2421875 5.125 0.875 C6.03507813 1.07867187 6.94515625 1.28234375 7.8828125 1.4921875 C8.58148438 1.65976562 9.28015625 1.82734375 10 2 C10.33 2.99 10.66 3.98 11 5 C6.428721 4.45144652 2.32564205 3.58255197 -2 2 C-1.34 1.34 -0.68 0.68 0 0 Z " fill="#C4C5CE" transform="translate(160,391)"/>
<path d="M0 0 C0.99 0.66 1.98 1.32 3 2 C1.42274653 2.70133599 -0.16211333 3.385583 -1.75 4.0625 C-2.63171875 4.44535156 -3.5134375 4.82820313 -4.421875 5.22265625 C-7.15256309 6.04600008 -8.36901347 5.9773992 -11 5 C-8.60236815 2.60236815 -7.66726502 2.65719414 -4.375 2.375 C-3.55773437 2.30023438 -2.74046875 2.22546875 -1.8984375 2.1484375 C-1.27195312 2.09945313 -0.64546875 2.05046875 0 2 C0 1.34 0 0.68 0 0 Z " fill="#C9C9D3" transform="translate(264,386)"/>
<path d="M0 0 C0.66 0 1.32 0 2 0 C0.54955729 4.10958767 -1.51110752 7.43258745 -4 11 C-4.66 10.67 -5.32 10.34 -6 10 C-5.18957164 8.51969728 -4.37659652 7.04078858 -3.5625 5.5625 C-2.88380859 4.32693359 -2.88380859 4.32693359 -2.19140625 3.06640625 C-1 1 -1 1 0 0 Z " fill="#BBB8C8" transform="translate(277,101)"/>
<path d="M0 0 C-4.1196377 1.29243536 -7.66831683 2.26252625 -12 2 C-10 -1 -10 -1 -7.125 -1.8125 C-3.92411417 -2.00455315 -2.63390925 -1.72217143 0 0 Z " fill="#C6CAD1" transform="translate(240,397)"/>
<path d="M0 0 C0 3 0 3 -1.3125 4.60546875 C-1.869375 5.12753906 -2.42625 5.64960938 -3 6.1875 C-3.556875 6.71730469 -4.11375 7.24710937 -4.6875 7.79296875 C-5.120625 8.19128906 -5.55375 8.58960938 -6 9 C-6.99 8.67 -7.98 8.34 -9 8 C-7.625 6 -7.625 6 -6 4 C-5.34 4 -4.68 4 -4 4 C-3.67 3.34 -3.34 2.68 -3 2 C-2.01 1.34 -1.02 0.68 0 0 Z " fill="#B6B9C3" transform="translate(308,356)"/>
<path d="M0 0 C4.29 0.33 8.58 0.66 13 1 C13 1.66 13 2.32 13 3 C8.17639811 3.19294408 4.50353262 2.75747614 0 1 C0 0.67 0 0.34 0 0 Z " fill="#CACBD9" transform="translate(10,358)"/>
<path d="M0 0 C0.66 0.99 1.32 1.98 2 3 C-3.5 6.125 -3.5 6.125 -8 5 C-4.04 2.525 -4.04 2.525 0 0 Z " fill="#C3C4CC" transform="translate(261,338)"/>
<path d="M0 0 C0.33 0.99 0.66 1.98 1 3 C-0.21484375 5.26171875 -0.21484375 5.26171875 -1.9375 7.6875 C-2.78634766 8.89986328 -2.78634766 8.89986328 -3.65234375 10.13671875 C-4.09707031 10.75160156 -4.54179687 11.36648438 -5 12 C-5.99 11.67 -6.98 11.34 -8 11 C-7.525625 10.566875 -7.05125 10.13375 -6.5625 9.6875 C-4.76313043 7.97690387 -4.76313043 7.97690387 -4 5 C-3.34 5 -2.68 5 -2 5 C-1.34 3.35 -0.68 1.7 0 0 Z " fill="#B4B5C4" transform="translate(335,321)"/>
<path d="M0 0 C0.66 0 1.32 0 2 0 C2.33 1.98 2.66 3.96 3 6 C1.68 6.33 0.36 6.66 -1 7 C-1.625 5.1875 -1.625 5.1875 -2 3 C-1.34 2.01 -0.68 1.02 0 0 Z " fill="#B6BBCA" transform="translate(203,95)"/>
<path d="M0 0 C2.60608273 2.5162178 4.89381685 5.05134359 7 8 C6.67 8.66 6.34 9.32 6 10 C4.66666667 10 3.33333333 10 2 10 C0.68373308 6.38026598 0 3.90432869 0 0 Z " fill="#C7C7D2" transform="translate(189,62)"/>
<path d="M0 0 C0.99 0.33 1.98 0.66 3 1 C1.02 3.97 1.02 3.97 -1 7 C-1.99 6.67 -2.98 6.34 -4 6 C-4 5.01 -4 4.02 -4 3 C-2.1875 1.25 -2.1875 1.25 0 0 Z " fill="#BCBFCA" transform="translate(76,527)"/>
<path d="M0 0 C2.22825644 2.22825644 2.69239369 3.65761628 3.625 6.625 C3.88539063 7.44226563 4.14578125 8.25953125 4.4140625 9.1015625 C4.60742188 9.72804688 4.80078125 10.35453125 5 11 C2 10 2 10 0.25 7.1875 C-0.98589446 4.03596914 -1.28222189 3.03070628 0 0 Z " fill="#CACBD3" transform="translate(374,439)"/>
<path d="M0 0 C0.66 0 1.32 0 2 0 C1.39009109 3.55780196 0.4216319 6.6828589 -1 10 C-1.66 10 -2.32 10 -3 10 C-2.25 3.375 -2.25 3.375 0 0 Z " fill="#BBBBC6" transform="translate(376,226)"/>
<path d="M0 0 C1.5 1.3125 1.5 1.3125 3 3 C3 3.99 3 4.98 3 6 C3.66 6 4.32 6 5 6 C5.33 7.32 5.66 8.64 6 10 C5.01 10 4.02 10 3 10 C0.96564469 6.27034861 0 4.33094958 0 0 Z " fill="#BFC0CB" transform="translate(280,578)"/>
<path d="M0 0 C0.66 0 1.32 0 2 0 C3.625 2.75 3.625 2.75 5 6 C4.1875 8.375 4.1875 8.375 3 10 C0.96564469 6.27034861 0 4.33094958 0 0 Z " fill="#B5B7C4" transform="translate(323,567)"/>
<path d="M0 0 C0.88300781 0.19464844 1.76601562 0.38929688 2.67578125 0.58984375 C3.67158203 0.82380859 3.67158203 0.82380859 4.6875 1.0625 C4.6875 1.3925 4.6875 1.7225 4.6875 2.0625 C2.93784642 2.11679959 1.18770213 2.15542823 -0.5625 2.1875 C-1.53703125 2.21070313 -2.5115625 2.23390625 -3.515625 2.2578125 C-6.3321498 2.06112781 -7.92199036 1.50818916 -10.3125 0.0625 C-6.51681539 -0.91548721 -3.8119001 -0.86403069 0 0 Z " fill="#B6B8C6" transform="translate(153.3125,439.9375)"/>
<path d="M0 0 C1.99897128 0.33944795 3.99875639 0.67421616 6 1 C6 1.33 6 1.66 6 2 C1.71 2 -2.58 2 -7 2 C-7.33 1.34 -7.66 0.68 -8 0 C-4.60091558 -1.13302814 -3.4175633 -0.79478216 0 0 Z " fill="#B1B3C2" transform="translate(193,397)"/>
<path d="M0 0 C1.98 0.99 1.98 0.99 4 2 C4 4.31 4 6.62 4 9 C3.01 8.67 2.02 8.34 1 8 C0.67 5.36 0.34 2.72 0 0 Z " fill="#BBBBCC" transform="translate(80,305)"/>
<path d="M0 0 C0.33 0.99 0.66 1.98 1 3 C-0.65 4.65 -2.3 6.3 -4 8 C-4.99 7.67 -5.98 7.34 -7 7 C-4.66666667 4.66666667 -2.33333333 2.33333333 0 0 Z " fill="#B7B9C6" transform="translate(283,162)"/>
<path d="M0 0 C1.125 1.5 1.125 1.5 2 4 C1.57598348 6.7773082 0.81108065 9.29639783 0 12 C-0.66 12 -1.32 12 -2 12 C-1 3.42857143 -1 3.42857143 0 0 Z " fill="#C4C5CE" transform="translate(44,95)"/>
<path d="M0 0 C-0.66 1.32 -1.32 2.64 -2 4 C-2.66 4 -3.32 4 -4 4 C-4.66 5.32 -5.32 6.64 -6 8 C-7 5 -7 5 -6.1875 2.875 C-4.38173518 0.02379239 -3.37140491 0 0 0 Z " fill="#C8C8D1" transform="translate(104,85)"/>
<path d="M0 0 C0.66 0.33 1.32 0.66 2 1 C1.45912682 4.78611227 -0.11722332 6.55400767 -3 9 C-3.66 9 -4.32 9 -5 9 C-5 8.34 -5 7.68 -5 7 C-4.34 7 -3.68 7 -3 7 C-1.79371992 4.66785852 -0.8345262 2.50357861 0 0 Z " fill="#B9BAC6" transform="translate(110,553)"/>
<path d="M0 0 C5.01113235 1.4317521 6.94469549 3.98445693 10 8 C5.60249328 7.49259538 3.13051078 4.91706686 0 2 C0 1.34 0 0.68 0 0 Z " fill="#C3C4CE" transform="translate(269,493)"/>
<path d="M0 0 C3.3 0.99 6.6 1.98 10 3 C9.67 3.99 9.34 4.98 9 6 C2.42696629 4.1011236 2.42696629 4.1011236 0 1 C0 0.67 0 0.34 0 0 Z " fill="#B9B9CB" transform="translate(138,382)"/>
<path d="M0 0 C0.66 0.33 1.32 0.66 2 1 C2 1.99 2 2.98 2 4 C0.02 4 -1.96 4 -4 4 C-4 4.66 -4 5.32 -4 6 C-5.32 5.67 -6.64 5.34 -8 5 C-6.71475739 4.13619741 -5.42157581 3.28419631 -4.125 2.4375 C-3.04605469 1.72400391 -3.04605469 1.72400391 -1.9453125 0.99609375 C-1.30335938 0.66738281 -0.66140625 0.33867187 0 0 Z " fill="#CECED7" transform="translate(387,328)"/>
<path d="M0 0 C0.66 0 1.32 0 2 0 C2.53229326 1.26607607 3.05044544 2.53810412 3.5625 3.8125 C3.85253906 4.52019531 4.14257812 5.22789062 4.44140625 5.95703125 C5 8 5 8 4 11 C3.32591692 9.73308493 2.66099503 8.46129251 2 7.1875 C1.62875 6.47980469 1.2575 5.77210938 0.875 5.04296875 C0 3 0 3 0 0 Z " fill="#B2B2C3" transform="translate(85,323)"/>
<path d="M0 0 C0.66 0.33 1.32 0.66 2 1 C1.23883449 2.15227823 0.46567307 3.2966386 -0.3125 4.4375 C-0.74175781 5.07558594 -1.17101562 5.71367187 -1.61328125 6.37109375 C-3 8 -3 8 -6 9 C-5.52797514 4.75177626 -3.03344482 2.80010291 0 0 Z " fill="#BBBDC7" transform="translate(289,312)"/>
<path d="M0 0 C0.33 0.66 0.66 1.32 1 2 C3.64 1.67 6.28 1.34 9 1 C4.5 5 4.5 5 0 5 C-0.5625 3.0625 -0.5625 3.0625 -1 1 C-0.67 0.67 -0.34 0.34 0 0 Z " fill="#B3B7C7" transform="translate(185,171)"/>
<path d="M0 0 C0.33 0 0.66 0 1 0 C1.56638908 4.81430721 -0.17438373 7.20307814 -3 11 C-3.99 10.67 -4.98 10.34 -6 10 C-5.65066406 9.44570312 -5.30132812 8.89140625 -4.94140625 8.3203125 C-4.48636719 7.59585938 -4.03132813 6.87140625 -3.5625 6.125 C-3.11003906 5.40570313 -2.65757812 4.68640625 -2.19140625 3.9453125 C-0.97538499 2.0222453 -0.97538499 2.0222453 0 0 Z " fill="#B9B9C9" transform="translate(323,109)"/>
<path d="M0 0 C0.66 0.33 1.32 0.66 2 1 C0.125 4.875 0.125 4.875 -1 6 C-2.66617115 6.04063832 -4.33388095 6.042721 -6 6 C-4.71034824 4.62437146 -3.37310707 3.29233607 -2 2 C-1.34 2 -0.68 2 0 2 C0 1.34 0 0.68 0 0 Z " fill="#B7BAC7" transform="translate(102,561)"/>
<path d="M0 0 C2.475 0.99 2.475 0.99 5 2 C5 3.32 5 4.64 5 6 C5.66 6 6.32 6 7 6 C6.67 6.66 6.34 7.32 6 8 C2.57701423 6.85900474 1.85241234 5.99914379 0 3 C0 2.01 0 1.02 0 0 Z " fill="#B9BAC7" transform="translate(251,536)"/>
<path d="M0 0 C1.32 0.66 2.64 1.32 4 2 C4 2.66 4 3.32 4 4 C4.99 4.33 5.98 4.66 7 5 C5 6 5 6 3.0546875 5.44140625 C2.33539063 5.15136719 1.61609375 4.86132812 0.875 4.5625 C0.15054688 4.27503906 -0.57390625 3.98757813 -1.3203125 3.69140625 C-2.15175781 3.34916016 -2.15175781 3.34916016 -3 3 C-2.01 2.01 -1.02 1.02 0 0 Z " fill="#CACBD4" transform="translate(182,490)"/>
<path d="M0 0 C4.29 0.33 8.58 0.66 13 1 C13 1.33 13 1.66 13 2 C6.565 2.495 6.565 2.495 0 3 C0 2.01 0 1.02 0 0 Z " fill="#CDCFDA" transform="translate(130,437)"/>
<path d="M0 0 C0.66 0.33 1.32 0.66 2 1 C-0.475 4.465 -0.475 4.465 -3 8 C-3.99 7.34 -4.98 6.68 -6 6 C-4.02 4.02 -2.04 2.04 0 0 Z " fill="#C7C7D8" transform="translate(363,345)"/>
<path d="M0 0 C0.66 0 1.32 0 2 0 C0.62845496 2.95409701 -0.98863724 5.44008376 -3 8 C-3.99 7.67 -4.98 7.34 -6 7 C-5.04882866 5.8274869 -4.08882991 4.66212985 -3.125 3.5 C-2.59132813 2.8503125 -2.05765625 2.200625 -1.5078125 1.53125 C-0.76144531 0.77328125 -0.76144531 0.77328125 0 0 Z " fill="#B8BBC6" transform="translate(317,346)"/>
<path d="M0 0 C1.16952466 3.50857397 0.76017128 5.42719497 0 9 C-0.33 9.66 -0.66 10.32 -1 11 C-1.66 11 -2.32 11 -3 11 C-2.69217504 9.35328588 -2.37860766 7.70764424 -2.0625 6.0625 C-1.88847656 5.14597656 -1.71445313 4.22945312 -1.53515625 3.28515625 C-1 1 -1 1 0 0 Z " fill="#BABAC3" transform="translate(135,246)"/>
<path d="M0 0 C1 2 1 2 0.44140625 3.9453125 C0.15136719 4.66460937 -0.13867188 5.38390625 -0.4375 6.125 C-0.72496094 6.84945312 -1.01242188 7.57390625 -1.30859375 8.3203125 C-1.53675781 8.87460938 -1.76492187 9.42890625 -2 10 C-2.66 10 -3.32 10 -4 10 C-3.5205537 5.78087253 -2.83374881 3.20336822 0 0 Z " fill="#B4B5C4" transform="translate(94,234)"/>
<path d="M0 0 C4.7517398 0.43197635 6.92000054 1.32769295 10 5 C5.75354935 5 3.61475228 3.18249194 0 1 C0 0.67 0 0.34 0 0 Z " fill="#CBCCD5" transform="translate(86,200)"/>
<path d="M0 0 C0.33 0.66 0.66 1.32 1 2 C0.34 2 -0.32 2 -1 2 C-1.2475 2.639375 -1.495 3.27875 -1.75 3.9375 C-3 6 -3 6 -5.125 6.75 C-6.053125 6.87375 -6.053125 6.87375 -7 7 C-7.33 6.34 -7.66 5.68 -8 5 C-4.04 2.525 -4.04 2.525 0 0 Z " fill="#CDCCD7" transform="translate(398,141)"/>
<path d="M0 0 C1.39195915 4.17587745 -0.17676781 6.13474776 -2 10 C-2.33 10 -2.66 10 -3 10 C-3 7.03 -3 4.06 -3 1 C-2.01 0.67 -1.02 0.34 0 0 Z " fill="#C3C4D0" transform="translate(336,83)"/>
<path d="M0 0 C0.515625 0.309375 1.03125 0.61875 1.5625 0.9375 C4.66665423 2.29059287 7.65115007 2.61359424 11 3 C11 3.33 11 3.66 11 4 C8.69 4.66 6.38 5.32 4 6 C4 5.34 4 4.68 4 4 C2.68 3.67 1.36 3.34 0 3 C0 2.01 0 1.02 0 0 Z " fill="#C5C6D2" transform="translate(54,530)"/>
<path d="M0 0 C3.79588866 0.54226981 5.47211993 2.20127563 8 5 C7.67 5.99 7.34 6.98 7 8 C4.35247996 5.42215154 2.05567935 3.08351902 0 0 Z " fill="#C9C5D2" transform="translate(235,522)"/>
<path d="M0 0 C4.875 4.625 4.875 4.625 6 8 C5.01 8 4.02 8 3 8 C0.19744677 5.0936485 0 4.21174952 0 0 Z " fill="#B8B9C4" transform="translate(341,473)"/>
<path d="M0 0 C4.67692308 1.47692308 4.67692308 1.47692308 6.3125 4.125 C6.539375 4.74375 6.76625 5.3625 7 6 C4 6 4 6 1.8125 4.125 C0 2 0 2 0 0 Z " fill="#BBBAC4" transform="translate(69,427)"/>
<path d="M0 0 C3.63 0.66 7.26 1.32 11 2 C7 4 7 4 3.25 3.125 C2.1775 2.75375 1.105 2.3825 0 2 C0 1.34 0 0.68 0 0 Z " fill="#B4B5C5" transform="translate(23,404)"/>
<path d="M0 0 C3.99996286 1.33332095 4.83782337 3.4957827 7 7 C4 7 4 7 1.8125 5.1875 C0 3 0 3 0 0 Z " fill="#B3B4C5" transform="translate(106,357)"/>
<path d="M0 0 C1.99097846 2.98646769 2.94124926 5.59687262 4 9 C1 8 1 8 -0.25 6.1875 C-1.11637742 3.66056586 -0.88492145 2.47778006 0 0 Z " fill="#B9BBC7" transform="translate(92,335)"/>
<path d="M0 0 C0.66 0.33 1.32 0.66 2 1 C1.1654738 3.50357861 0.20628008 5.66785852 -1 8 C-1.66 7.67 -2.32 7.34 -3 7 C-2.38722388 4.03824877 -1.74627478 2.61941217 0 0 Z " fill="#B8B9C9" transform="translate(306,283)"/>
<path d="M0 0 C1.1725131 0.95117134 2.33787015 1.91117009 3.5 2.875 C4.47453125 3.67550781 4.47453125 3.67550781 5.46875 4.4921875 C5.9740625 4.98976562 6.479375 5.48734375 7 6 C7 6.66 7 7.32 7 8 C4.13792848 6.71700242 1.9754912 5.469364 0 3 C0 2.01 0 1.02 0 0 Z " fill="#B2B1C0" transform="translate(65,180)"/>
<path d="M0 0 C-1.28519565 2.86697492 -2.57129254 4.97607712 -5 7 C-5.66 7 -6.32 7 -7 7 C-3.86206897 0 -3.86206897 0 0 0 Z " fill="#B9BCC6" transform="translate(60,500)"/>
<path d="M0 0 C7.75 0.75 7.75 0.75 10 3 C3.375 3.125 3.375 3.125 0 2 C0 1.34 0 0.68 0 0 Z " fill="#BBBAC5" transform="translate(152,484)"/>
<path d="M0 0 C3.82097239 0.53069061 6.06171403 1.49701566 9 4 C8.67 4.66 8.34 5.32 8 6 C6.66402348 5.19185349 5.331275 4.37836819 4 3.5625 C3.2575 3.11003906 2.515 2.65757812 1.75 2.19140625 C1.1725 1.79824219 0.595 1.40507812 0 1 C0 0.67 0 0.34 0 0 Z " fill="#BABBCC" transform="translate(239,471)"/>
<path d="M0 0 C0.66 0 1.32 0 2 0 C2 0.66 2 1.32 2 2 C2.66 2 3.32 2 4 2 C6 5 6 5 5.625 7.1875 C5.41875 7.785625 5.2125 8.38375 5 9 C4.16094435 7.87926138 3.32892169 6.75325453 2.5 5.625 C2.0359375 4.99851562 1.571875 4.37203125 1.09375 3.7265625 C0 2 0 2 0 0 Z " fill="#BABBC7" transform="translate(115,414)"/>
<path d="M0 0 C3.125 0.6875 3.125 0.6875 6 2 C6.33 2.99 6.66 3.98 7 5 C3.7 4.01 0.4 3.02 -3 2 C-2.01 1.34 -1.02 0.68 0 0 Z " fill="#CCC5D6" transform="translate(38,408)"/>
<path d="M0 0 C0.66 0 1.32 0 2 0 C2.33 2.97 2.66 5.94 3 9 C2.01 8.34 1.02 7.68 0 7 C-0.1875 3.375 -0.1875 3.375 0 0 Z " fill="#C6C5D4" transform="translate(79,297)"/>
<path d="M0 0 C0.33 0 0.66 0 1 0 C0.67 2.64 0.34 5.28 0 8 C-1.32 8.33 -2.64 8.66 -4 9 C-2.80100302 5.9168649 -1.52299523 2.93720508 0 0 Z " fill="#C9C8D3" transform="translate(100,220)"/>
<path d="M0 0 C1.3921875 0.0928125 1.3921875 0.0928125 2.8125 0.1875 C2.8125 0.8475 2.8125 1.5075 2.8125 2.1875 C-1.6425 2.6825 -1.6425 2.6825 -6.1875 3.1875 C-3.1875 0.1875 -3.1875 0.1875 0 0 Z " fill="#C9C9D8" transform="translate(190.1875,216.8125)"/>
<path d="M0 0 C0.33 0 0.66 0 1 0 C0.88637738 1.4800841 0.75877092 2.95910074 0.625 4.4375 C0.52058594 5.67306641 0.52058594 5.67306641 0.4140625 6.93359375 C0.27742187 7.61550781 0.14078125 8.29742187 0 9 C-0.99 9.495 -0.99 9.495 -2 10 C-2.17942163 6.05272412 -2.09350689 3.4019487 0 0 Z " fill="#AFB1C4" transform="translate(204,128)"/>
<path d="M0 0 C0.66 0 1.32 0 2 0 C0.68775452 3.93673644 -0.91910327 6.22719294 -4 9 C-4 7.68 -4 6.36 -4 5 C-3.34 5 -2.68 5 -2 5 C-1.34 3.35 -0.68 1.7 0 0 Z " fill="#C4C4CE" transform="translate(317,120)"/>
<path d="M0 0 C1.64350079 3.28700157 2.41321669 5.47930015 3 9 C2.01 9 1.02 9 0 9 C0 6.03 0 3.06 0 0 Z " fill="#B5B7C3" transform="translate(6,527)"/>
<path d="M0 0 C3.73487777 0.4979837 5.81237635 0.87491756 9 3 C7.3125 3.6875 7.3125 3.6875 5 4 C2.25 2.625 2.25 2.625 0 1 C0 0.67 0 0.34 0 0 Z " fill="#B9B9C5" transform="translate(391,517)"/>
<path d="M0 0 C0.66 0 1.32 0 2 0 C1.34 2.97 0.68 5.94 0 9 C-0.66 9 -1.32 9 -2 9 C-1.34 6.03 -0.68 3.06 0 0 Z " fill="#B1B4C4" transform="translate(93,496)"/>
<path d="M0 0 C0.66 0 1.32 0 2 0 C1.125 4.75 1.125 4.75 0 7 C-0.66 7 -1.32 7 -2 7 C-1.125 1.125 -1.125 1.125 0 0 Z " fill="#B8BAC5" transform="translate(12,488)"/>
<path d="M0 0 C3.37462715 0.54723683 5.08235 1.0549 8 3 C4.67465243 4.10844919 2.37817425 3.84454356 -1 3 C-0.67 2.01 -0.34 1.02 0 0 Z " fill="#C4C5D2" transform="translate(160,485)"/>
<path d="M0 0 C2 4 2 4 1.125 6.75 C0.75375 7.4925 0.3825 8.235 0 9 C-0.99 9 -1.98 9 -3 9 C-2.01 6.03 -1.02 3.06 0 0 Z " fill="#C5C5CD" transform="translate(330,221)"/>
<path d="M0 0 C0.66 0.33 1.32 0.66 2 1 C0.02 3.97 0.02 3.97 -2 7 C-2.66 5.68 -3.32 4.36 -4 3 C-2.68 2.01 -1.36 1.02 0 0 Z " fill="#C6C8D0" transform="translate(152,221)"/>
<path d="M0 0 C0.33 0.66 0.66 1.32 1 2 C-1 4 -3 6 -5 8 C-5.33 7.01 -5.66 6.02 -6 5 C-4.02 3.35 -2.04 1.7 0 0 Z " fill="#BCBAC7" transform="translate(360,174)"/>
<path d="M0 0 C0.33 0.99 0.66 1.98 1 3 C-0.9375 6.1875 -0.9375 6.1875 -3 9 C-3.99 8.34 -4.98 7.68 -6 7 C-5.34 7 -4.68 7 -4 7 C-3.71125 6.401875 -3.4225 5.80375 -3.125 5.1875 C-2 3 -2 3 0 0 Z " fill="#C5C7CD" transform="translate(268,113)"/>
<path d="M0 0 C0.33 0.99 0.66 1.98 1 3 C-4.75 2.25 -4.75 2.25 -7 0 C-4.3333581 -1.33332095 -2.83319697 -0.67102033 0 0 Z " fill="#C6C9D4" transform="translate(48,575)"/>
<path d="M0 0 C0.33 0 0.66 0 1 0 C1.33 1.98 1.66 3.96 2 6 C0.68 6 -0.64 6 -2 6 C-1.125 1.125 -1.125 1.125 0 0 Z " fill="#B8B9C4" transform="translate(8,498)"/>
<path d="M0 0 C2.96175123 0.61277612 4.38058783 1.25372522 7 3 C4.125 3.625 4.125 3.625 1 4 C0.34 3.34 -0.32 2.68 -1 2 C-0.67 1.34 -0.34 0.68 0 0 Z " fill="#B7BAC9" transform="translate(87,483)"/>
<path d="M0 0 C5.75 0.875 5.75 0.875 8 2 C8 2.66 8 3.32 8 4 C5.36 3.34 2.72 2.68 0 2 C0 1.34 0 0.68 0 0 Z " fill="#B7B8C9" transform="translate(220,461)"/>
<path d="M0 0 C0.99 0.33 1.98 0.66 3 1 C3 1.66 3 2.32 3 3 C4.32 3.66 5.64 4.32 7 5 C6.01 5.33 5.02 5.66 4 6 C1.8125 4.75 1.8125 4.75 0 3 C0 2.01 0 1.02 0 0 Z " fill="#B6B5C2" transform="translate(114,365)"/>
<path d="M0 0 C3 3.625 3 3.625 3 7 C2.01 7 1.02 7 0 7 C-1.125 2.25 -1.125 2.25 0 0 Z " fill="#CCCBD4" transform="translate(128,310)"/>
<path d="M0 0 C0.66 1.32 1.32 2.64 2 4 C0.68 5.32 -0.64 6.64 -2 8 C-2.33 7.34 -2.66 6.68 -3 6 C-2.06553465 3.96855359 -1.06775224 1.96466413 0 0 Z " fill="#C5C7D4" transform="translate(337,206)"/>
<path d="M0 0 C0.99 0.33 1.98 0.66 3 1 C1.02 3.97 1.02 3.97 -1 7 C-1.66 5.68 -2.32 4.36 -3 3 C-2.01 2.67 -1.02 2.34 0 2 C0 1.34 0 0.68 0 0 Z " fill="#C6C7D1" transform="translate(389,206)"/>
<path d="M0 0 C0.66 0 1.32 0 2 0 C1.875 1.875 1.875 1.875 1 4 C-2.0625 5.25 -2.0625 5.25 -5 6 C-3.38405168 3.95880212 -1.7143618 1.95927063 0 0 Z " fill="#C7CAD2" transform="translate(256,127)"/>
<path d="M0 0 C0.66 0 1.32 0 2 0 C2.33 2.64 2.66 5.28 3 8 C2.01 7.34 1.02 6.68 0 6 C-0.1875 2.875 -0.1875 2.875 0 0 Z " fill="#C2C3CB" transform="translate(86,126)"/>
<path d="M0 0 C-1.39332574 3.36720387 -2.9789286 4.9859524 -6 7 C-5.37162381 3.35541809 -4.14650034 0 0 0 Z " fill="#B5BBC3" transform="translate(264,121)"/>
<path d="M0 0 C0.33 0 0.66 0 1 0 C1 1.65 1 3.3 1 5 C0.34 5 -0.32 5 -1 5 C-1 6.65 -1 8.3 -1 10 C-2.125 8.25 -2.125 8.25 -3 6 C-2.1875 3.875 -2.1875 3.875 -1 2 C-0.67 1.34 -0.34 0.68 0 0 Z " fill="#CACAD7" transform="translate(206,98)"/>
<path d="M0 0 C0.66 1.32 1.32 2.64 2 4 C0.625 5.5 0.625 5.5 -1 7 C-1.66 7 -2.32 7 -3 7 C-1.125 2.25 -1.125 2.25 0 0 Z " fill="#C4C5CE" transform="translate(281,94)"/>
<path d="" fill="#FFFFFF" transform="translate(0,0)"/>
<path d="" fill="#FFFFFF" transform="translate(0,0)"/>
<path d="" fill="#FFFFFF" transform="translate(0,0)"/>
<path d="" fill="#FFFFFF" transform="translate(0,0)"/>
<path d="" fill="#FFFFFF" transform="translate(0,0)"/>
<path d="" fill="#FFFFFF" transform="translate(0,0)"/>
<path d="" fill="#FFFFFF" transform="translate(0,0)"/>
<path d="" fill="#FFFFFF" transform="translate(0,0)"/>
<path d="" fill="#FFFFFF" transform="translate(0,0)"/>
<path d="" fill="#FFFFFF" transform="translate(0,0)"/>
<path d="" fill="#FFFFFF" transform="translate(0,0)"/>
<path d="" fill="#FFFFFF" transform="translate(0,0)"/>
<path d="" fill="#FFFFFF" transform="translate(0,0)"/>
<path d="" fill="#FFFFFF" transform="translate(0,0)"/>
<path d="" fill="#FFFFFF" transform="translate(0,0)"/>
<path d="" fill="#FFFFFF" transform="translate(0,0)"/>
<path d="" fill="#FFFFFF" transform="translate(0,0)"/>
<path d="" fill="#FFFFFF" transform="translate(0,0)"/>
<path d="" fill="#FFFFFF" transform="translate(0,0)"/>
<path d="" fill="#FFFFFF" transform="translate(0,0)"/>
<path d="" fill="#FFFFFF" transform="translate(0,0)"/>
<path d="" fill="#FFFFFF" transform="translate(0,0)"/>
<path d="" fill="#FFFFFF" transform="translate(0,0)"/>
<path d="" fill="#FFFFFF" transform="translate(0,0)"/>
<path d="" fill="#FFFFFF" transform="translate(0,0)"/>
<path d="" fill="#FFFFFF" transform="translate(0,0)"/>
<path d="" fill="#FFFFFF" transform="translate(0,0)"/>
<path d="" fill="#FFFFFF" transform="translate(0,0)"/>
<path d="" fill="#FFFFFF" transform="translate(0,0)"/>
<path d="" fill="#FFFFFF" transform="translate(0,0)"/>
<path d="" fill="#FFFFFF" transform="translate(0,0)"/>
<path d="" fill="#FFFFFF" transform="translate(0,0)"/>
<path d="" fill="#FFFFFF" transform="translate(0,0)"/>
<path d="" fill="#FFFFFF" transform="translate(0,0)"/>
<path d="" fill="#FFFFFF" transform="translate(0,0)"/>
<path d="" fill="#FFFFFF" transform="translate(0,0)"/>
</svg>
